<?xml version="1.0" encoding="UTF-8" standalone="no"?>
<!DOCTYPE svg PUBLIC "-//W3C//DTD SVG 1.1//EN" "http://www.w3.org/Graphics/SVG/1.1/DTD/svg11.dtd">
<svg width="100%" height="100%" viewBox="0 0 512 512" version="1.1" xmlns="http://www.w3.org/2000/svg" xmlns:xlink="http://www.w3.org/1999/xlink" xml:space="preserve" xmlns:serif="http://www.serif.com/" style="fill-rule:evenodd;clip-rule:evenodd;stroke-linejoin:round;stroke-miterlimit:2;">
    <path d="M446.24,97.36C441.695,91.456 434.651,87.993 427.2,88L385.2,88L388.72,72L392,72C405.151,71.961 415.961,61.151 416,48L416,40C415.961,26.849 405.151,16.039 392,16L120,16C106.849,16.039 96.039,26.849 96,40L96,48C96.039,61.151 106.849,71.961 120,72L123.28,72L126.8,88L84.8,88C84.792,88 84.783,88 84.775,88C71.609,88 60.775,98.834 60.775,112C60.775,114.107 61.052,116.205 61.6,118.24L81.76,193.92C86.552,211.557 99.635,225.804 116.8,232.08L163.04,248.88C172.914,273.259 191.926,292.845 216,303.44L216,352L184,352C179.611,352 176,355.611 176,360L176,384L144,384C139.611,384 136,387.611 136,392L136,488C136,492.389 139.611,496 144,496L368,496C372.389,496 376,492.389 376,488L376,392C376,387.611 372.389,384 368,384L336,384L336,360C336,355.611 332.389,352 328,352L296,352L296,303.44C320.129,292.898 339.184,273.297 349.04,248.88L395.2,232.08C412.365,225.804 425.448,211.557 430.24,193.92L450.4,118.24C452.326,111.017 450.787,103.294 446.24,97.36ZM120,56C115.611,56 112,52.389 112,48L112,40C112,35.611 115.611,32 120,32L392,32C396.389,32 400,35.611 400,40L400,48C400,52.389 396.389,56 392,56L120,56ZM122.24,217.04C109.979,212.565 100.65,202.369 97.28,189.76L77.12,114.08C76.431,111.678 76.937,109.086 78.48,107.12C79.977,105.145 82.322,103.987 84.8,104L130.24,104L156.8,225.92C156.96,227.28 157.28,228.56 157.52,229.84L122.24,217.04ZM360,400L360,480L152,480L152,400L360,400ZM320,368L320,384L192,384L192,368L320,368ZM232,352L232,308.96C247.742,313.013 264.258,313.013 280,308.96L280,352L232,352ZM339.36,223.68C333.484,264.997 297.732,296.024 255.999,296.024C214.056,296.024 178.187,264.684 172.56,223.12L139.68,72L372.32,72L339.36,223.68ZM434.88,114.08L414.72,189.76C411.35,202.369 402.021,212.565 389.76,217.04L354.48,229.84C354.64,228.72 354.96,227.6 355.12,226.48L381.76,104L427.2,104C429.678,103.987 432.023,105.145 433.52,107.12C435.063,109.086 435.569,111.678 434.88,114.08Z" style="fill:white;fill-rule:nonzero;"/>
    <path d="M320,408L192,408C187.611,408 184,411.611 184,416L184,464C184,468.389 187.611,472 192,472L320,472C324.389,472 328,468.389 328,464L328,416C328,411.611 324.389,408 320,408ZM312,456L200,456L200,424L312,424L312,456Z" style="fill:white;fill-rule:nonzero;"/>
    <path d="M256,88C216.502,88 184,120.502 184,160C184,199.498 216.502,232 256,232C295.498,232 328,199.498 328,160C327.939,120.525 295.475,88.061 256,88ZM256,216C225.279,216 200,190.721 200,160C200,129.279 225.279,104 256,104C286.721,104 312,129.279 312,160C311.965,190.707 286.707,215.965 256,216Z" style="fill:white;fill-rule:nonzero;"/>
    <path d="M290.64,144.96C289.425,144.087 288.323,143.066 287.36,141.92C286.787,140.423 286.384,138.867 286.16,137.28C285.894,131.199 282.855,125.563 277.92,122C272.492,119.569 266.241,119.746 260.96,122.48C259.355,123.094 257.694,123.549 256,123.84C254.306,123.549 252.645,123.094 251.04,122.48C245.759,119.746 239.508,119.569 234.08,122C229.145,125.563 226.106,131.199 225.84,137.28C225.598,138.855 225.224,140.408 224.72,141.92C223.705,143.044 222.579,144.062 221.36,144.96C216.162,148.304 212.77,153.849 212.16,160C212.77,166.151 216.162,171.696 221.36,175.04C222.575,175.913 223.677,176.934 224.64,178.08C225.213,179.577 225.616,181.133 225.84,182.72C226.106,188.801 229.145,194.437 234.08,198C239.508,200.429 245.758,200.252 251.04,197.52C252.645,196.906 254.306,196.451 256,196.16C257.694,196.451 259.355,196.906 260.96,197.52C264.135,198.851 267.521,199.61 270.96,199.76C273.393,199.785 275.791,199.179 277.92,198C282.855,194.437 285.894,188.801 286.16,182.72C286.402,181.145 286.776,179.592 287.28,178.08C288.295,176.956 289.421,175.938 290.64,175.04C295.838,171.696 299.23,166.151 299.84,160C299.23,153.849 295.838,148.304 290.64,144.96ZM280.32,162.72C277.633,164.774 275.308,167.261 273.44,170.08C271.921,173.182 270.896,176.502 270.4,179.92C270.23,181.159 269.989,182.388 269.68,183.6C268.64,183.28 267.28,182.8 266.24,182.48C262.992,181.103 259.524,180.317 256,180.16C252.476,180.317 249.008,181.103 245.76,182.48C244.72,182.8 243.36,183.28 242.32,183.6C242.011,182.388 241.77,181.159 241.6,179.92C241.104,176.502 240.079,173.182 238.56,170.08C236.692,167.261 234.367,164.774 231.68,162.72C230.576,161.92 229.558,161.008 228.64,160C229.558,158.992 230.576,158.08 231.68,157.28C234.367,155.226 236.692,152.739 238.56,149.92C240.079,146.818 241.104,143.498 241.6,140.08C241.77,138.841 242.011,137.612 242.32,136.4C243.36,136.72 244.72,137.2 245.76,137.52C249.008,138.897 252.476,139.683 256,139.84C259.524,139.683 262.992,138.897 266.24,137.52C267.28,137.2 268.64,136.72 269.68,136.4C269.989,137.612 270.23,138.841 270.4,140.08C270.896,143.498 271.921,146.818 273.44,149.92C275.308,152.739 277.633,155.226 280.32,157.28C281.424,158.08 282.442,158.992 283.36,160C282.442,161.008 281.424,161.92 280.32,162.72Z" style="fill:white;fill-rule:nonzero;"/>
</svg>
