<?xml version="1.0" encoding="UTF-8" standalone="no"?>
<!DOCTYPE svg PUBLIC "-//W3C//DTD SVG 1.1//EN" "http://www.w3.org/Graphics/SVG/1.1/DTD/svg11.dtd">
<svg width="100%" height="100%" viewBox="0 0 453 453" version="1.1" xmlns="http://www.w3.org/2000/svg" xmlns:xlink="http://www.w3.org/1999/xlink" xml:space="preserve" xmlns:serif="http://www.serif.com/" style="fill-rule:evenodd;clip-rule:evenodd;stroke-linejoin:round;stroke-miterlimit:2;">
    <g>
        <path d="M53.131,132.428C53.367,132.428 53.607,132.411 53.848,132.376L137.17,120.411C143.643,119.476 150.27,119.003 156.867,119.003C169.325,119.003 181.725,120.685 193.724,124.003C196.383,124.738 199.14,123.178 199.876,120.516C200.612,117.854 199.051,115.1 196.389,114.364C183.522,110.806 170.225,109.003 156.867,109.003C149.793,109.003 142.686,109.511 135.745,110.513L52.427,122.477C49.694,122.87 47.796,125.404 48.189,128.137C48.546,130.63 50.684,132.428 53.131,132.428Z" style="fill:white;fill-rule:nonzero;stroke:white;stroke-width:1px;"/>
        <path d="M258.936,124.003C277.451,118.884 296.478,117.676 315.494,120.412L398.812,132.376C399.053,132.411 399.292,132.428 399.529,132.428C401.976,132.428 404.115,130.63 404.472,128.138C404.865,125.405 402.967,122.871 400.234,122.478L316.917,110.514C296.53,107.58 276.123,108.876 256.272,114.365C253.61,115.101 252.049,117.855 252.785,120.517C253.521,123.179 256.277,124.739 258.936,124.003Z" style="fill:white;fill-rule:nonzero;stroke:white;stroke-width:1px;"/>
        <path d="M53.131,166.791C53.367,166.791 53.607,166.774 53.848,166.739L137.17,154.774C143.643,153.839 150.27,153.366 156.867,153.366C169.325,153.366 181.725,155.048 193.724,158.366C196.383,159.102 199.14,157.541 199.876,154.879C200.612,152.217 199.051,149.463 196.389,148.727C183.522,145.169 170.225,143.366 156.867,143.366C149.793,143.366 142.686,143.874 135.745,144.876L52.427,156.84C49.694,157.233 47.796,159.767 48.189,162.5C48.546,164.993 50.684,166.791 53.131,166.791Z" style="fill:white;fill-rule:nonzero;stroke:white;stroke-width:1px;"/>
        <path d="M258.936,158.366C277.451,153.247 296.48,152.04 315.494,154.775L398.812,166.739C399.053,166.774 399.292,166.791 399.529,166.791C401.976,166.791 404.115,164.993 404.472,162.501C404.865,159.768 402.967,157.234 400.234,156.841L316.917,144.877C296.53,141.943 276.125,143.238 256.272,148.728C253.61,149.464 252.049,152.218 252.785,154.88C253.521,157.542 256.277,159.102 258.936,158.366Z" style="fill:white;fill-rule:nonzero;stroke:white;stroke-width:1px;"/>
        <path d="M53.131,201.154C53.367,201.154 53.607,201.137 53.848,201.102L137.17,189.137C143.643,188.203 150.27,187.729 156.867,187.729C169.325,187.729 181.726,189.411 193.724,192.729C196.383,193.465 199.14,191.904 199.876,189.242C200.612,186.58 199.051,183.826 196.389,183.09C183.523,179.532 170.226,177.729 156.867,177.729C149.794,177.729 142.686,178.237 135.745,179.239L52.427,191.203C49.694,191.596 47.796,194.13 48.189,196.863C48.546,199.356 50.684,201.154 53.131,201.154Z" style="fill:white;fill-rule:nonzero;stroke:white;stroke-width:1px;"/>
        <path d="M258.936,192.729C277.452,187.61 296.483,186.403 315.494,189.138L398.812,201.102C399.053,201.137 399.292,201.154 399.529,201.154C401.976,201.154 404.115,199.356 404.472,196.864C404.865,194.131 402.967,191.597 400.234,191.204L316.917,179.24C296.527,176.306 276.123,177.602 256.272,183.091C253.61,183.827 252.049,186.581 252.785,189.243C253.521,191.905 256.277,193.465 258.936,192.729Z" style="fill:white;fill-rule:nonzero;stroke:white;stroke-width:1px;"/>
        <path d="M53.131,235.517C53.367,235.517 53.607,235.5 53.848,235.465L137.17,223.5C143.643,222.565 150.27,222.092 156.867,222.092C169.325,222.092 181.725,223.774 193.724,227.092C196.383,227.827 199.14,226.267 199.876,223.605C200.612,220.943 199.051,218.189 196.389,217.453C183.522,213.895 170.225,212.092 156.867,212.092C149.793,212.092 142.686,212.6 135.745,213.602L52.427,225.566C49.694,225.959 47.796,228.493 48.189,231.226C48.546,233.719 50.684,235.517 53.131,235.517Z" style="fill:white;fill-rule:nonzero;stroke:white;stroke-width:1px;"/>
        <path d="M258.936,227.092C277.451,221.973 296.478,220.765 315.494,223.501L398.812,235.465C399.053,235.5 399.292,235.517 399.529,235.517C401.976,235.517 404.115,233.719 404.472,231.227C404.865,228.494 402.967,225.96 400.234,225.567L316.917,213.603C296.53,210.669 276.123,211.965 256.272,217.454C253.61,218.19 252.049,220.944 252.785,223.606C253.521,226.267 256.277,227.827 258.936,227.092Z" style="fill:white;fill-rule:nonzero;stroke:white;stroke-width:1px;"/>
        <path d="M53.131,269.88C53.368,269.88 53.607,269.863 53.848,269.828L137.169,257.863C143.642,256.929 150.269,256.455 156.866,256.455C169.324,256.455 181.724,258.137 193.723,261.455C196.382,262.19 199.139,260.63 199.875,257.968C200.611,255.306 199.05,252.552 196.388,251.816C183.521,248.258 170.224,246.455 156.866,246.455C149.793,246.455 142.685,246.963 135.744,247.965L52.426,259.93C49.693,260.323 47.795,262.857 48.188,265.59C48.546,268.082 50.684,269.88 53.131,269.88Z" style="fill:white;fill-rule:nonzero;stroke:white;stroke-width:1px;"/>
        <path d="M258.936,261.455C277.452,256.336 296.483,255.129 315.494,257.864L398.812,269.828C399.053,269.863 399.292,269.88 399.529,269.88C401.976,269.88 404.115,268.082 404.472,265.59C404.865,262.857 402.967,260.323 400.234,259.93L316.917,247.966C296.527,245.032 276.123,246.328 256.272,251.817C253.61,252.553 252.049,255.307 252.785,257.969C253.521,260.63 256.277,262.19 258.936,261.455Z" style="fill:white;fill-rule:nonzero;stroke:white;stroke-width:1px;"/>
        <path d="M53.131,304.243C53.367,304.243 53.607,304.226 53.848,304.191L137.17,292.226C143.645,291.291 150.272,290.818 156.867,290.818C169.325,290.818 181.725,292.5 193.724,295.818C196.383,296.554 199.14,294.993 199.876,292.331C200.612,289.669 199.051,286.915 196.389,286.179C183.522,282.621 170.225,280.817 156.867,280.817C149.795,280.817 142.688,281.325 135.745,282.327L52.427,294.291C49.694,294.684 47.796,297.218 48.189,299.951C48.546,302.445 50.684,304.243 53.131,304.243Z" style="fill:white;fill-rule:nonzero;stroke:white;stroke-width:1px;"/>
        <path d="M258.937,295.818C277.45,290.699 296.478,289.491 315.494,292.227L398.812,304.191C399.053,304.226 399.292,304.243 399.529,304.243C401.976,304.243 404.115,302.445 404.472,299.953C404.865,297.22 402.967,294.686 400.234,294.293L316.917,282.329C296.53,279.395 276.124,280.69 256.271,286.18C253.61,286.916 252.049,289.67 252.785,292.332C253.521,294.993 256.274,296.553 258.937,295.818Z" style="fill:white;fill-rule:nonzero;stroke:white;stroke-width:1px;"/>
        <path d="M156.866,325.181C169.324,325.181 181.724,326.863 193.723,330.181C196.382,330.917 199.139,329.356 199.875,326.694C200.611,324.032 199.05,321.278 196.388,320.542C183.521,316.984 170.224,315.181 156.866,315.181C149.792,315.181 142.685,315.689 135.744,316.691L52.426,328.655C49.693,329.048 47.795,331.582 48.188,334.315C48.546,336.807 50.684,338.605 53.131,338.605C53.367,338.605 53.607,338.588 53.848,338.553L137.17,326.588C143.643,325.655 150.269,325.181 156.866,325.181Z" style="fill:white;fill-rule:nonzero;stroke:white;stroke-width:1px;"/>
        <path d="M400.233,328.656L316.916,316.692C296.529,313.758 276.122,315.053 256.271,320.543C253.609,321.279 252.048,324.033 252.784,326.695C253.52,329.357 256.277,330.917 258.935,330.182C277.45,325.063 296.477,323.856 315.493,326.591L398.811,338.555C399.052,338.59 399.291,338.607 399.528,338.607C401.975,338.607 404.114,336.809 404.471,334.317C404.864,331.582 402.967,329.048 400.233,328.656Z" style="fill:white;fill-rule:nonzero;stroke:white;stroke-width:1px;"/>
        <path d="M447.66,117.57L435.906,117.57L435.906,93.588C435.906,91.101 434.079,88.992 431.617,88.639L316.916,72.162C309.923,71.157 302.873,70.671 295.83,70.68L295.83,32.087C295.83,30.206 294.774,28.485 293.099,27.631C291.423,26.777 289.41,26.937 287.89,28.043L274.33,37.904L260.77,28.043C259.251,26.937 257.237,26.778 255.561,27.631C253.885,28.484 252.83,30.206 252.83,32.087L252.83,77.047C243.686,79.8 234.798,83.425 226.33,87.903C198.724,73.307 166.67,67.72 135.744,72.162L21.043,88.639C18.582,88.993 16.754,91.101 16.754,93.588L16.754,117.57L5,117.57C2.239,117.57 0,119.809 0,122.57L0,420.573C0,421.962 0.578,423.289 1.596,424.235C2.524,425.098 3.742,425.573 5,425.573C5.122,425.573 5.243,425.569 5.365,425.56L205.844,410.907L246.817,410.907L447.297,425.56C447.419,425.569 447.54,425.573 447.661,425.573C448.92,425.573 450.138,425.098 451.065,424.235C452.083,423.289 452.661,421.962 452.661,420.573L452.661,122.57C452.66,119.808 450.422,117.57 447.66,117.57ZM315.494,82.06L425.906,97.92L425.906,373.148L316.916,357.492C287.84,353.315 257.766,358.006 231.33,370.714L231.33,96.573C257.003,83.087 286.769,77.934 315.494,82.06ZM40.86,381.225L137.166,367.391C165.89,363.266 195.656,368.417 221.33,381.904L221.33,387.497C205.703,380.384 188.049,376.9 167.62,376.9C157.71,376.9 147.286,377.705 135.652,379.376L40.86,394.904L40.86,381.225ZM210.66,393.91C215.266,395.614 219.68,397.624 223.909,399.965C225.416,400.798 227.243,400.798 228.751,399.965C232.987,397.621 237.395,395.597 242,393.888L242,400.907L210.66,400.907L210.66,393.91ZM231.33,387.486L231.33,381.904C257.005,368.417 286.773,363.265 315.494,367.391L411.8,381.225L411.8,394.905L316.92,379.361C281.942,374.344 254.479,376.922 231.33,387.486ZM262.83,41.906L271.39,48.131C273.142,49.406 275.519,49.406 277.271,48.131L285.831,41.906L285.831,71.03C278.09,71.561 270.395,72.693 262.831,74.412L262.831,41.906L262.83,41.906ZM26.754,97.921L137.166,82.061C165.89,77.935 195.656,83.087 221.33,96.574L221.33,370.726C201.191,361.045 178.948,356.006 156.634,356.006C149.657,356.006 142.671,356.498 135.744,357.493L26.754,373.149L26.754,97.921ZM10,415.194L10,127.57L16.754,127.57L16.754,378.918C16.754,380.368 17.383,381.747 18.48,382.697C19.575,383.646 21.031,384.073 22.465,383.868L30.86,382.662L30.86,400.791C30.86,402.258 31.505,403.652 32.623,404.602C33.741,405.552 35.219,405.963 36.668,405.726L137.17,389.261C148.23,387.673 158.19,386.902 167.619,386.902C179.648,386.902 190.599,388.19 200.659,390.788L200.659,401.261L10,415.194ZM442.66,415.194L252,401.259L252,390.763C269.854,386.14 290.567,385.683 315.401,389.244L415.991,405.724C416.261,405.768 416.531,405.79 416.8,405.79C417.977,405.79 419.127,405.374 420.037,404.601C421.155,403.651 421.8,402.258 421.8,400.79L421.8,382.661L430.196,383.867C430.433,383.901 430.671,383.918 430.907,383.918C432.102,383.918 433.266,383.489 434.181,382.697C435.277,381.747 435.907,380.369 435.907,378.918L435.907,127.57L442.661,127.57L442.661,415.194L442.66,415.194Z" style="fill:white;fill-rule:nonzero;stroke:white;stroke-width:1px;"/>
    </g>
</svg>
