<?xml version="1.0" encoding="UTF-8" standalone="no"?>
<!DOCTYPE svg PUBLIC "-//W3C//DTD SVG 1.1//EN" "http://www.w3.org/Graphics/SVG/1.1/DTD/svg11.dtd">
<svg width="100%" height="100%" viewBox="0 0 472 472" version="1.1" xmlns="http://www.w3.org/2000/svg" xmlns:xlink="http://www.w3.org/1999/xlink" xml:space="preserve" xmlns:serif="http://www.serif.com/" style="fill-rule:evenodd;clip-rule:evenodd;stroke-linejoin:round;stroke-miterlimit:2;">
    <path d="M467.334,321.019L366.023,280.596C369.262,269.476 371.006,257.726 371.006,245.574C371.006,176.43 314.754,120.178 245.61,120.178C229.162,120.178 213.446,123.367 199.041,129.15L161.592,35.413C162.106,34.992 162.602,34.543 163.079,34.067C166.849,30.298 168.925,25.287 168.925,19.957C168.925,14.627 166.849,9.615 163.08,5.846C159.31,2.077 154.3,0.001 148.97,0.001C143.64,0.001 138.628,2.077 134.86,5.846C131.09,9.615 129.014,14.627 129.014,19.957C129.014,25.287 131.09,30.298 134.86,34.067C138.629,37.836 143.64,39.912 148.97,39.912C149.464,39.912 149.951,39.876 150.438,39.84L188.118,134.156C165.05,146.107 146.145,165.013 134.193,188.081L39.84,150.438C39.875,149.952 39.911,149.466 39.911,148.973C39.911,143.643 37.835,138.632 34.066,134.863L34.065,134.863C30.296,131.094 25.286,129.018 19.955,129.018C14.625,129.018 9.613,131.094 5.846,134.863C2.076,138.632 0,143.643 0,148.973C0,154.303 2.076,159.315 5.845,163.084C9.615,166.853 14.625,168.929 19.955,168.929C25.286,168.929 30.297,166.853 34.065,163.084C34.543,162.606 34.992,162.108 35.415,161.592L129.188,199.005C123.405,213.411 120.216,229.126 120.216,245.575C120.216,314.719 176.468,370.97 245.612,370.97C257.748,370.97 269.484,369.231 280.591,365.999L321.022,467.331C321.96,469.68 324.214,471.109 326.597,471.109C327.337,471.109 328.089,470.971 328.819,470.68C331.897,469.452 333.396,465.962 332.169,462.884L291.954,362.092C323.87,349.353 349.364,323.866 362.113,291.956L462.888,332.165C463.617,332.456 464.369,332.594 465.11,332.594C467.493,332.594 469.748,331.164 470.685,328.816C471.911,325.738 470.412,322.247 467.334,321.019ZM141.015,19.958C141.015,17.833 141.843,15.835 143.345,14.333C144.848,12.831 146.846,12.003 148.971,12.003C151.096,12.003 153.093,12.831 154.596,14.333C156.098,15.835 156.926,17.833 156.926,19.958C156.926,22.083 156.098,24.081 154.595,25.583C153.093,27.085 151.096,27.913 148.971,27.913C146.846,27.913 144.848,27.086 143.345,25.583C141.843,24.081 141.015,22.083 141.015,19.958ZM25.58,154.599C24.078,156.101 22.081,156.929 19.955,156.929C17.83,156.929 15.833,156.101 14.33,154.599C12.828,153.097 12,151.099 12,148.974C12,146.849 12.828,144.851 14.331,143.349C15.833,141.847 17.831,141.019 19.955,141.019C22.08,141.019 24.078,141.846 25.58,143.349L25.581,143.349C27.083,144.851 27.911,146.849 27.911,148.974C27.911,151.099 27.083,153.096 25.58,154.599ZM303.905,342.804L148.421,187.216C151.197,182.611 154.291,178.22 157.672,174.07L291.865,308.263C292.443,309.404 293.372,310.333 294.512,310.91L317.116,333.514C312.947,336.911 308.534,340.018 303.905,342.804ZM275.207,355.045L136.142,215.98C137.795,209.873 139.943,203.969 142.547,198.314L292.804,348.672C287.17,351.261 281.289,353.399 275.207,355.045ZM245.611,132.18C252.278,132.18 258.81,132.763 265.164,133.872L199.804,199.232L188.552,187.98L244.336,132.196C244.761,132.191 245.185,132.18 245.611,132.18ZM354.695,214.559L281.855,214.559L298.855,197.559L348.323,197.559C350.879,203.006 353.022,208.684 354.695,214.559ZM356.343,270.029L270.572,270L255.131,254.559L358.652,254.559C358.237,259.825 357.456,264.988 356.343,270.029ZM253.855,242.559L269.855,226.559L357.404,226.559C358.289,231.782 358.824,237.122 358.966,242.559L253.855,242.559ZM240.008,239.436L228.756,228.184L306.798,150.142C311.318,153.05 315.619,156.271 319.671,159.773L240.008,239.436ZM220.271,219.7L208.288,207.717L278.851,137.154C284.779,138.975 290.5,141.273 295.973,143.998L220.271,219.7ZM180.067,179.495L165.738,165.166C181.755,149.255 202.481,138.079 225.617,133.946L180.067,179.495ZM282.576,282.004L352.995,282.028C350.922,288.12 348.345,293.98 345.312,299.559L300.13,299.559L282.576,282.004ZM341.779,185.559L310.856,185.559L328.324,168.091C333.349,173.453 337.86,179.302 341.779,185.559ZM135.68,273.423L217.763,355.507C177.571,345.32 145.866,313.615 135.68,273.423ZM237.932,358.705L132.482,253.254C132.311,250.715 132.216,248.156 132.216,245.575C132.216,240.321 132.583,235.152 133.279,230.086L261.102,357.908C256.036,358.603 250.866,358.971 245.612,358.971C243.03,358.971 240.47,358.876 237.932,358.705ZM326.021,325.449L312.131,311.559L337.778,311.559C334.23,316.5 330.297,321.145 326.021,325.449Z" style="fill:white;fill-rule:nonzero;"/>
</svg>
